<?xml version="1.0" encoding="utf-8"?>
<!-- Generated by Glyphs Company app at https://glyphs.co -->
<!-- Copyright Glyphs Company. Please follow included license terms. -->
<!-- Do NOT redistribute -->
<svg class="signia" xmlns="http://www.w3.org/2000/svg" viewBox="0 0 18 26">
    <path class="fill" d="M3.64 11.73c.93-.78.94-.83 1.82-1.25.33-.16 1.32.26 1.32.26s1.5.3 2.21.3c.3 0 .57-.13.78-.27-1.09 1.04-3.88 1.86-4.78 4.01-.85 2.06-.74 4.21-.65 5.12h10.95c-.13-.82-.19-2.8 1.1-6.03 1.76-4.42 1.65-6.61-1.23-10.29-1.42-1.81-3.35-2.31-4.95-2.35C9.07.1 6.79 0 6.79 0l.51 1.91.04.75-1.99.81s-.71.17-.71.8c0 .59-4.12 3.78-4.55 4.01C.15 8.44 0 9.79 0 10.3c0 .57.57.9.57.9l.71.39s1.48.89 2.36.14zM.06 8.29c-.01.01 0 .01.03-.01-.01-.02-.02-.02-.03.01zM16 23v-2H3v2H1v3h17v-3h-2z" fill-rule="evenodd" clip-rule="evenodd"/>
</svg>