<?xml version="1.0" encoding="utf-8"?>
<!-- Generated by Glyphs Company app at https://glyphs.co -->
<!-- Copyright Glyphs Company. Please follow included license terms. -->
<!-- Do NOT redistribute -->
<svg class="signia" xmlns="http://www.w3.org/2000/svg" viewBox="0 0 23 20">
    <path class="fill" d="M23 2.37c-.85.4-1.76.67-2.71.79.97-.62 1.72-1.61 2.07-2.79-.91.58-1.92 1-2.99 1.23C18.51.61 17.28 0 15.92 0c-2.6 0-4.71 2.26-4.71 5.05 0 .4.04.78.12 1.15C7.41 5.99 3.93 3.98 1.6.93c-.4.74-.64 1.61-.64 2.53 0 1.76.84 3.3 2.1 4.21-.77-.03-1.5-.26-2.14-.64v.07c0 2.44 1.63 4.48 3.79 4.95-.4.11-.81.18-1.24.18-.31 0-.6-.04-.89-.1.6 2.01 2.34 3.47 4.41 3.51-1.62 1.35-3.65 2.16-5.86 2.16-.39 0-.76-.02-1.13-.07C2.09 19.16 4.57 20 7.23 20c8.68 0 13.43-7.69 13.43-14.36l-.01-.66c.92-.71 1.72-1.6 2.35-2.61z"/>
</svg>