<?xml version="1.0" encoding="utf-8"?>
<!-- Generated by Glyphs Company app at https://glyphs.co -->
<!-- Copyright Glyphs Company. Please follow included license terms. -->
<!-- Do NOT redistribute -->
<svg class="signia" xmlns="http://www.w3.org/2000/svg" viewBox="0 0 19 20">
    <path class="fill" d="M8.68 4.7C8.42 2.61 7.01.93 5.53.88 4.05.83 3.06 2.43 3.31 4.53c.26 2.09 1.67 3.83 3.15 3.88 1.48.05 2.47-1.61 2.22-3.71zm-2.42 7.78c-2.21-.03-4.18 1.45-4.18 3.22 0 1.81 1.59 3.31 3.8 3.31 3.1 0 4.18-1.41 4.18-3.22 0-.22-.02-.43-.07-.64-.24-1.02-1.1-1.53-2.3-2.432-.43-.148-.91-.238-1.43-.238zM8.89 1c1.21.5 1.85 2.02 1.85 3.58 0 1.31-.67 2.43-1.62 3.23-.93.79-1.1 1.11-1.1 1.78 0 .56.99 1.53 1.51 1.92 1.52 1.16 2.01 2.23 2.01 4.03 0 2.24-2.01 4.46-5.65 4.46C2.69 20 0 18.6 0 16.36c0-2.27 2.46-4.46 5.65-4.46l1-.01c-.44-.46-.78-1.02-.78-1.71 0-.41.12-.81.29-1.16-.18.02-.35.02-.54.02-2.62 0-4.38-2.01-4.38-4.5C1.24 2.1 3.67 0 6.25 0H12l-1.29 1H8.89zM19 5h-2v2h-2V5h-2V3h2V1h2v2h2v2z" fill-rule="evenodd" clip-rule="evenodd"/>
</svg>