<?xml version="1.0" encoding="utf-8"?>
<!-- Generated by Glyphs Company app at https://glyphs.co -->
<!-- Copyright Glyphs Company. Please follow included license terms. -->
<!-- Do NOT redistribute -->
<svg class="signia" xmlns="http://www.w3.org/2000/svg" viewBox="0 0 25 19">
    <path class="fill" d="M4 5H1c-.55 0-1-.45-1-1V1c0-.55.45-1 1-1h3c.55 0 1 .45 1 1v3c0 .55-.45 1-1 1zm0 7H1c-.55 0-1-.45-1-1V8c0-.55.45-1 1-1h3c.55 0 1 .45 1 1v3c0 .55-.45 1-1 1zm0 7H1c-.55 0-1-.45-1-1v-3c0-.55.45-1 1-1h3c.55 0 1 .45 1 1v3c0 .55-.45 1-1 1zM24 5H8c-.55 0-1-.45-1-1V1c0-.55.45-1 1-1h16c.55 0 1 .45 1 1v3c0 .55-.45 1-1 1zm0 7H8c-.55 0-1-.45-1-1V8c0-.55.45-1 1-1h16c.55 0 1 .45 1 1v3c0 .55-.45 1-1 1zm0 7H8c-.55 0-1-.45-1-1v-3c0-.55.45-1 1-1h16c.55 0 1 .45 1 1v3c0 .55-.45 1-1 1z" fill-rule="evenodd" clip-rule="evenodd"/>
</svg>