<?xml version="1.0" encoding="utf-8"?>
<!-- Generated by Glyphs Company app at https://glyphs.co -->
<!-- Copyright Glyphs Company. Please follow included license terms. -->
<!-- Do NOT redistribute -->
<svg class="signia" xmlns="http://www.w3.org/2000/svg" viewBox="0 0 22.019 22">
    <path class="fill" d="M18.36 15.44v2.1l-6.14 4.33V15l2.86 2.57 3.28-2.13zm-8.18-1.15V22l-5.12-4.35v-1.47l1.66 1.39 3.46-3.28zM0 4.43L6.62 0l4.31 3.79-6.47 4.12L0 4.43zm10.93-.64l.01-.01.02.01-.01.02-.02-.02zm10.87 7.76l-6.53 4.03L11.05 12l-4.43 3.58L0 11.55l4.55-3.56 6.49 3.99 6.61-4.27-.01.01 4.16 3.83zm-4.15-3.84l.03-.02-.03.02zM22.02 4l-4.34 3.69-6.72-3.9L15.37 0l6.65 4z" fill-rule="evenodd" clip-rule="evenodd"/>
</svg>