<?xml version="1.0" encoding="utf-8"?>
<!-- Generated by Glyphs Company app at https://glyphs.co -->
<!-- Copyright Glyphs Company. Please follow included license terms. -->
<!-- Do NOT redistribute -->
<svg viewBox="0 0 25.999 13"><path d="M23.18,9.63l-1.54-1.62l-1.47,1.58L18.7,8.03L17.23,9.59l-1.711-1.53L13.86,9.7h-2.44c-1.04,1.96-3.03,3.3-5.3,3.3C2.74,13,0,10.5,0,6.93C0,3.35,2.74,0,6.12,0c2.25,0,4.189,1.31,5.26,3.23H23.7l2.06,2.21c0.33,0.34,0.3,1.12,0.021,1.43l-2.56,2.75L23.18,9.63z M3.45,8.57c0.91,0,1.64-0.79,1.64-1.75c0-0.94-0.729-1.74-1.64-1.74c-0.92,0-1.65,0.8-1.65,1.74C1.8,7.78,2.53,8.57,3.45,8.57z"/></svg>