<?xml version="1.0" encoding="utf-8"?>
<!-- Generated by Glyphs Company app at https://glyphs.co -->
<!-- Copyright Glyphs Company. Please follow included license terms. -->
<!-- Do NOT redistribute -->
<svg class="signia" xmlns="http://www.w3.org/2000/svg" viewBox="0 0 22 22">
    <path class="fill" d="M18.11 7.76c2.15 0 3.89-1.73 3.89-3.89C22 1.74 20.26 0 18.11 0c-2.14 0-3.87 1.74-3.87 3.87 0 .09.01.16.02.24L6.38 8.04c-.68-.56-1.54-.93-2.49-.93C1.74 7.11 0 8.85 0 11c0 2.14 1.74 3.87 3.89 3.87.95 0 1.81-.35 2.49-.91l7.88 3.93c-.01.08-.02.15-.02.22 0 2.15 1.73 3.89 3.87 3.89 2.15 0 3.89-1.74 3.89-3.89 0-2.14-1.74-3.87-3.89-3.87-.95 0-1.81.35-2.49.92l-7.87-3.94.01-.22-.01-.22 7.87-3.95c.68.58 1.54.93 2.49.93z"/>
</svg>