<?xml version="1.0" encoding="utf-8"?>
<!-- Generated by Glyphs Company app at https://glyphs.co -->
<!-- Copyright Glyphs Company. Please follow included license terms. -->
<!-- Do NOT redistribute -->
<svg class="signia" xmlns="http://www.w3.org/2000/svg" viewBox="0 0 24.019 24.019">
    <path class="fill" d="M22.55 6.25c.05.38.08.79.08 1.23 0 1.22-.23 2.59-.91 4.3l-3.67 10.61c3.57-2.08 5.97-5.95 5.97-10.38 0-2.09-.54-4.05-1.47-5.76zm-10.33 6.81l-3.6 10.47c1.07.32 2.21.49 3.39.49 1.4 0 2.74-.24 3.99-.68-.03-.05-.06-.11-.09-.17l-3.69-10.11zm7.9-1.66c0-1.48-.54-2.51-.99-3.31-.61-.99-1.18-1.82-1.18-2.81 0-1.11.83-2.13 2.02-2.13l.15.01C17.98 1.2 15.14 0 12.01 0 7.82 0 4.13 2.16 1.98 5.42l.77.01c1.26 0 3.2-.15 3.2-.15.65-.04.73.91.08.99 0 0-.65.07-1.38.11l4.38 13.01 2.62-7.88-1.87-5.13c-.64-.04-1.26-.11-1.26-.11-.64-.04-.57-1.03.08-.99 0 0 1.98.15 3.16.15 1.26 0 3.2-.15 3.2-.15.65-.04.73.91.08.99 0 0-.65.07-1.37.11l4.34 12.91 1.19-4c.61-1.56.92-2.86.92-3.89zM0 12.01c0 4.75 2.77 8.86 6.77 10.81L1.04 7.12C.38 8.62 0 10.27 0 12.01z" fill-rule="evenodd" clip-rule="evenodd"/>
</svg>