<?xml version="1.0" encoding="utf-8"?>
<!-- Generated by Glyphs Company app at https://glyphs.co -->
<!-- Copyright Glyphs Company. Please follow included license terms. -->
<!-- Do NOT redistribute -->
<svg class="signia" xmlns="http://www.w3.org/2000/svg" viewBox="0 0 24.014 24.03">
    <path class="fill" d="M11.998 6.057c-1.713 0-3.26.697-4.375 1.82H.013V4.783c0-1.59-.212-2.898 1-3.752v5h1v-6c.222-.087.765.056 1 0v6h1v-6h1v6h1v-6h14c2.622 0 4 2.15 4 4.753V7.88h-7.64C15.26 6.754 13.713 6.057 12 6.057zm6.016-1.028c0 .55.448 1 1 1h2c.552 0 1-.45 1-1v-2c0-.554-.448-1-1-1h-2c-.552 0-1 .446-1 1v2zm-6.016 11.825c-2.61 0-4.73-2.108-4.73-4.7 0-1.406.625-2.67 1.615-3.53.347-.303.74-.556 1.164-.748.595-.27 1.256-.42 1.95-.42.697 0 1.357.15 1.952.42.423.192.815.445 1.162.747.99.862 1.616 2.125 1.616 3.532 0 2.59-2.123 4.7-4.732 4.7zm.016-8.172c-1.93 0-3.497 1.555-3.497 3.473s1.566 3.473 3.497 3.473 3.497-1.556 3.497-3.474-1.564-3.473-3.495-3.473zm-6.156 3.473c0 3.37 2.75 6.1 6.14 6.1 3.392 0 6.142-2.732 6.142-6.1 0-1.148-.335-2.21-.89-3.127h6.765v10.284c0 2.604-2.125 4.715-4.747 4.715H4.76c-2.62 0-4.746-2.11-4.746-4.716V9.03h6.733c-.555.916-.89 1.98-.89 3.127z" fill-rule="evenodd" clip-rule="evenodd"/>
</svg>