<?xml version="1.0" encoding="utf-8"?>
<!-- Generated by Glyphs Company app at https://glyphs.co -->
<!-- Copyright Glyphs Company. Please follow included license terms. -->
<!-- Do NOT redistribute -->
<svg class="signia" xmlns="http://www.w3.org/2000/svg" viewBox="0 0 26 26">
    <path class="fill" d="M4.52 19.22s-4.31 1.09-3.39 5.65c4.56.92 5.65-3.39 5.65-3.39-2.11 2.16-4.52 2.26-4.52 2.26s.1-2.41 2.26-4.52zM26 0S13.54.86 10.17 9.04c0 0-3.04-.34-5.65 2.26C1.91 13.91 0 18.09 0 18.09s4.56-3.73 5.65-2.26c1.09 1.46 0 3.39 0 3.39l1.13 1.13s1.93-1.09 3.39 0C11.64 21.44 7.91 26 7.91 26s4.18-1.91 6.79-4.52c2.6-2.61 2.26-5.65 2.26-5.65C25.14 12.46 26 0 26 0zm-8.27 5.91c0-1.31 1.06-2.36 2.36-2.36 1.31 0 2.36 1.05 2.36 2.36 0 1.3-1.05 2.36-2.36 2.36-1.3 0-2.36-1.06-2.36-2.36z" fill-rule="evenodd" clip-rule="evenodd"/>
</svg>