<?xml version="1.0" encoding="utf-8"?>
<!-- Generated by Glyphs Company app at https://glyphs.co -->
<!-- Copyright Glyphs Company. Please follow included license terms. -->
<!-- Do NOT redistribute -->
<svg class="signia" xmlns="http://www.w3.org/2000/svg" viewBox="0 0 24.002 23">
    <path class="fill" d="M11.49.608c.28-.81.74-.81 1.02 0l2.15 5.89c.28.81 1.2 1.48 2.05 1.5h6.55c.85.02.99.45.31.97l-5.22 4.45c-.67.52-1.03 1.61-.78 2.43l1.9 6.31c.24.81-.13 1.09-.83.6l-5.37-3.77c-.7-.49-1.84-.49-2.54 0l-5.37 3.77c-.7.49-1.07.21-.82-.6l1.89-6.31c.25-.82-.11-1.91-.78-2.43L.43 8.968c-.68-.52-.54-.95.31-.97h6.55c.85-.02 1.78-.69 2.05-1.5l2.15-5.89z"/>
</svg>