<?xml version="1.0" encoding="utf-8"?>
<!-- Generated by Glyphs Company app at https://glyphs.co -->
<!-- Copyright Glyphs Company. Please follow included license terms. -->
<!-- Do NOT redistribute -->
<svg class="signia" xmlns="http://www.w3.org/2000/svg" viewBox="0 0 23.493 29.681">
    <path class="fill" d="M16.756 8.51c-1.06-.99-2.62-1.13-3.49-.31-.86.81-.71 2.28.34 3.28 1.06.99 2.62 1.13 3.48.31.87-.81.72-2.28-.33-3.28zm-5.12 4l-1.19 2.32c-.14.25-.01.4.28.31l.62-.18c.29-.08.77-.08 1.06 0l.61.18c.29.09.42-.06.29-.31l-1.19-2.32c-.13-.26-.35-.26-.48 0zm-1.11-4.31c-.87-.82-2.43-.68-3.48.31-1.06 1-1.21 2.47-.34 3.28.87.82 2.43.68 3.48-.31 1.06-1 1.21-2.47.34-3.28zm9.01 4.69c0 1.4-1.11 2.56-2.55 2.74v2.03H6.766v-2.03c-1.44-.18-2.56-1.34-2.56-2.74 0-.41.1-.79.26-1.14-.81-1.25-1.28-2.71-1.28-4.28 0-4.53 3.89-7.47 8.69-7.47 4.8 0 8.69 2.94 8.69 7.47 0 1.57-.47 3.03-1.29 4.28.17.35.26.73.26 1.14zm2.74 8.12c-1.14.54-2.44.4-3.08-.27l-3.96 1.85 3.96 1.86c.64-.68 1.94-.81 3.08-.27 1.28.59 1.47 1.6.94 2.48-.24.39-.65.648-1.15.77.16.43.15.88-.09 1.27-.53.88-1.58 1.3-2.86.7-1.14-.53-1.74-1.55-1.47-2.39-1.48-.78-3.52-1.85-5.63-2.91L5.836 27c.28.84-.31 1.86-1.46 2.4-1.28.6-2.33.18-2.86-.7-.24-.39-.25-.84-.09-1.27-.5-.12-.91-.38-1.15-.77-.53-.88-.34-1.892.94-2.48 1.24-.59 2.67-.38 3.23.45 1.2-.47 2.8-1.21 4.52-2.04-1.72-.83-3.32-1.56-4.52-2.04-.56.84-1.99 1.04-3.23.46-1.28-.6-1.47-1.6-.94-2.48.24-.39.65-.65 1.15-.77-.16-.44-.15-.89.09-1.27.53-.88 1.58-1.3 2.86-.71 1.15.54 1.74 1.56 1.46 2.41l6.18 2.89c2.11-1.06 4.15-2.12 5.63-2.91-.27-.84.33-1.85 1.47-2.39 1.28-.59 2.33-.17 2.86.71.24.38.25.83.09 1.27.5.12.91.38 1.15.77.53.88.34 1.88-.94 2.48z" fill-rule="evenodd" clip-rule="evenodd"/>
</svg>