<?xml version="1.0" encoding="utf-8"?>
<!-- Generated by Glyphs Company app at https://glyphs.co -->
<!-- Copyright Glyphs Company. Please follow included license terms. -->
<!-- Do NOT redistribute -->
<svg class="smart-social whatsapp" xmlns="http://www.w3.org/2000/svg" viewBox="0 0 48 48">
    <defs>
        <style>
            .basic .whatsappbg {display:none;} .round .whatsappbg{rx:100;} .whatsappbg, .basic .whatsappbrand{ fill: #2eb844; } .whatsappbrand { fill: #fff; fill-rule: evenodd; }
        </style>
    </defs>
    <rect rx="0" ry="0" width="48" height="48" class="whatsappbg"/>
    <path d="M23.992 38.812c-2.546 0-4.998-.656-7.167-1.78L8.997 39l2.17-7.688c-1.32-2.25-1.98-4.78-1.98-7.406C9.09 15.656 15.787 9 24.087 9c3.96 0 7.73 1.594 10.56 4.406 2.83 2.813 4.34 6.563 4.34 10.5 0 8.157-6.697 14.906-14.996 14.906zm8.865-23.718c-2.358-2.344-5.47-3.657-8.77-3.657-6.885.094-12.45 5.626-12.45 12.47 0 2.343.66 4.593 1.887 6.562l.283.467-1.226 4.593 4.717-1.31.472.28c1.885 1.125 4.054 1.687 6.317 1.687 6.884 0 12.448-5.53 12.448-12.374 0-3.282-1.32-6.376-3.677-8.72zm-3.96 15.844c-.66.093-1.51.093-2.36-.188-.565-.094-1.32-.375-2.168-.75-3.774-1.594-6.226-5.344-6.415-5.625-.188-.28-1.508-1.97-1.508-3.844 0-1.78.943-2.716 1.225-3.092.378-.374.755-.468 1.038-.468h.755c.283 0 .566-.095.85.655.282.75 1.036 2.625 1.13 2.813.095.187.095.374 0 .656-.094.28-.188.47-.377.656-.188.187-.377.47-.565.656-.19.188-.378.375-.19.75.19.375.944 1.5 2.076 2.53 1.412 1.314 2.64 1.69 3.015 1.877.378.187.66.187.85-.094.282-.283.942-1.127 1.225-1.5.284-.377.473-.284.85-.19.377.094 2.17 1.03 2.546 1.125.377.188.66.282.755.47.096.187.096.936-.187 1.78-.377.844-1.792 1.688-2.546 1.782z" class="whatsappbrand"/>
</svg>
