<?xml version="1.0" encoding="utf-8"?>
<!-- Generated by Glyphs Company app at https://glyphs.co -->
<!-- Copyright Glyphs Company. Please follow included license terms. -->
<!-- Do NOT redistribute -->
<svg class="smart-social instagram" xmlns="http://www.w3.org/2000/svg" viewBox="0 0 48 48">
    <defs>
        <style>
            .basic .instagrambg {display:none;} .round .instagrambg{rx:100;} .instagrambg, .basic .instagrambrand{ fill: #49709b; } .instagrambrand { fill: #fff; fill-rule: evenodd; }
        </style>
    </defs>
    <rect rx="0" ry="0" width="48" height="48" class="instagrambg"/>
    <path d="M34.568 36.005h-21.14c-.792 0-1.434-.64-1.434-1.433v-21.14c0-.792.642-1.433 1.433-1.433h21.14c.793 0 1.433.64 1.433 1.43v21.14c0 .792-.64 1.433-1.432 1.433zM24 20c-2.21 0-4 1.79-4 4s1.79 4 4 4 4-1.79 4-4-1.79-4-4-4zm0 11c-3.866 0-7-3.134-7-7 0-1.078.264-2.088.7-3H15v12h18V21h-2.7c.436.912.7 1.922.7 3 0 3.866-3.134 7-7 7zm10-15c0-1.105-.895-2-2-2h-1c-1.105 0-2 .895-2 2v1c0 1.105.895 2 2 2h1c1.105 0 2-.895 2-2v-1z" class="instagrambrand"/>
</svg>
