<?xml version="1.0" encoding="utf-8"?>
<!-- Generated by Glyphs Company app at https://glyphs.co -->
<!-- Copyright Glyphs Company. Please follow included license terms. -->
<!-- Do NOT redistribute -->
<svg class="smart-social snapchat" xmlns="http://www.w3.org/2000/svg" viewBox="0 0 48 48">
    <defs>
        <style>
            .basic .snapchatbg {display:none;} .round .snapchatbg{rx:100;} .snapchatbg, .basic .snapchatbrand{ fill: #f8ec19; } .snapchatbrand { fill: #fff; stroke-width:1; stroke:#000; fill-rule: evenodd; }
        </style>
    </defs>
    <rect rx="0" ry="0" width="48" height="48" class="snapchatbg"/>
    <path d="M23.947 36.995c.023.002-.045.005-.11.005-1.85 0-3.066-.814-4.043-1.467-.584-.39-1.087-.724-1.59-.804-.305-.05-.606-.074-.895-.074-.523 0-.938.077-1.27.14-.293.053-.543.09-.735.09-.665 0-1.175-.368-1.367-.983-.07-.22-.12-.435-.167-.643l-.015-.07c-2.134-.355-3.218-.874-3.593-1.703-.074-.162-.117-.333-.128-.51-.04-.67.434-1.252 1.102-1.356 1.308-.2 2.48-.863 3.482-1.967.81-.892 1.2-1.74 1.215-1.775l.027-.06.043-.07c.058-.12.057-.2.057-.202-.105-.114-.746-.306-.987-.378-.16-.048-.31-.094-.43-.138-1.824-.683-1.914-1.688-1.806-2.228.183-.91 1.175-1.454 2.028-1.454.262 0 .505.05.723.146.254.112.458.175.616.208-.116-1.76-.237-3.897.417-5.283 1.935-4.1 6.008-4.417 7.21-4.417l.454-.004c1.28 0 5.356.32 7.29 4.417.65 1.377.534 3.497.418 5.248.127-.036.285-.092.47-.173.297-.133.603-.16.807-.16.287 0 .573.052.826.152.754.252 1.276.877 1.292 1.578.014.844-.603 1.505-1.837 1.965-.12.045-.27.09-.43.14-.234.07-.84.25-.992.418.013.01.03.09.1.226l.05.106c.043.09 1.49 3.207 4.68 3.703.67.11 1.14.69 1.102 1.352-.013.19-.057.36-.132.522-.37.82-1.453 1.337-3.588 1.693l-.015.07c-.05.214-.1.42-.17.638-.185.6-.697.972-1.334.972-.202 0-.45-.024-.76-.082-.34-.062-.747-.13-1.273-.13-.29 0-.59.026-.896.073-.505.08-1.007.414-1.587.802-.978.654-2.195 1.468-4.044 1.468l-.216-.005z" class="snapchatbrand"/>
</svg>
