<?xml version="1.0" encoding="utf-8"?>
<!-- Generated by Glyphs Company app at https://glyphs.co -->
<!-- Copyright Glyphs Company. Please follow included license terms. -->
<!-- Do NOT redistribute -->
<svg class="smart-social twitter" xmlns="http://www.w3.org/2000/svg" viewBox="0 0 48 48">
    <defs>
        <style>
            .basic .twitterbg {display:none;} .round .twitterbg{rx:100;} .twitterbg, .basic .twitterbrand{ fill: #56acee; } .twitterbrand { fill: #fff; fill-rule: evenodd; }
        </style>
    </defs>
    <rect rx="0" ry="0" width="48" height="48" class="twitterbg"/>
    <path d="M38 15.724c-.993.462-2.06.774-3.18.914 1.142-.718 2.02-1.856 2.434-3.212-1.07.666-2.256 1.15-3.518 1.41-1.01-1.13-2.45-1.834-4.043-1.834-3.06 0-5.54 2.6-5.54 5.805 0 .455.05.898.144 1.323-4.604-.242-8.685-2.553-11.417-6.065-.477.857-.75 1.854-.75 2.918 0 2.014.978 3.79 2.464 4.832-.908-.03-1.762-.29-2.51-.726v.07c0 2.814 1.91 5.16 4.444 5.694-.465.132-.954.204-1.46.204-.356 0-.703-.038-1.04-.106.703 2.306 2.75 3.985 5.173 4.032-1.894 1.557-4.282 2.485-6.88 2.485-.445 0-.886-.028-1.32-.08 2.453 1.646 5.364 2.607 8.49 2.607 10.19 0 15.763-8.846 15.763-16.518 0-.25-.005-.503-.016-.75 1.082-.82 2.02-1.843 2.764-3.007" class="twitterbrand"/>
</svg>
