<?xml version="1.0" encoding="utf-8"?>
<!-- Generated by Glyphs Company app at https://glyphs.co -->
<!-- Copyright Glyphs Company. Please follow included license terms. -->
<!-- Do NOT redistribute -->
<svg class="smart-social feed" xmlns="http://www.w3.org/2000/svg" viewBox="0 0 48 48">
    <defs>
        <style>
            .basic .feedbg {display:none;} .round .feedbg{rx:100;} .feedbg, .basic .feedbrand{ fill: #ef922f; } .feedbrand { fill: #fff; fill-rule: evenodd; }
        </style>
    </defs>
    <rect rx="0" ry="0" width="48" height="48" class="feedbg"/>
    <path d="M36 36.012h-4.685c-1.116-18.067-19.3-19.302-19.3-19.302v-4.713C37.227 13.457 36 36.012 36 36.012zm-7.995-.014h-4.738c-.564-10.857-11.282-11.305-11.282-11.305v-4.7c16.246.67 16.02 16.005 16.02 16.005zm-12.623-6.856c1.868 0 3.382 1.535 3.382 3.43 0 1.893-1.514 3.428-3.382 3.428S12 34.465 12 32.57c0-1.893 1.514-3.428 3.382-3.428z" class="feedbrand"/>
</svg>
