<?xml version="1.0" encoding="utf-8"?>
<!-- Generated by Glyphs Company app at https://glyphs.co -->
<!-- Copyright Glyphs Company. Please follow included license terms. -->
<!-- Do NOT redistribute -->
<svg class="smart-social dropbox" xmlns="http://www.w3.org/2000/svg" viewBox="0 0 48 48">
    <defs>
        <style>
            .basic .dropboxbg {display:none;} .round .dropboxbg{rx:100;} .dropboxbg, .basic .dropboxbrand{ fill: #067ee6; } .dropboxbrand { fill: #fff; fill-rule: evenodd; }
        </style>
    </defs>
    <rect rx="0" ry="0" width="48" height="48" class="dropboxbg"/>
    <path d="M24 18.248L29.352 14 37 18.75l-5.288 4.027L24 18.247zm13 8.557l-7.648 4.75L24 27.305l7.712-4.528L37 26.805zm-18.352 4.75L11 26.805l5.288-4.028L24 27.307l-5.352 4.248zM11 18.75L18.648 14 24 18.248l-7.712 4.53L11 18.748zm13.016 9.47l5.367 4.236 2.297-1.426v1.6L24.016 37l-7.664-4.37v-1.6l2.296 1.426 5.368-4.236z" class="dropboxbrand"/>
</svg>
