<?xml version="1.0" encoding="utf-8"?>
<!-- Generated by Glyphs Company app at https://glyphs.co -->
<!-- Copyright Glyphs Company. Please follow included license terms. -->
<!-- Do NOT redistribute -->
<svg class="smart-socia bloggerl" xmlns="http://www.w3.org/2000/svg" viewBox="0 0 48 48">
    <defs>
        <style>
            .basic .bloggerbg {display:none;} .round .bloggerbg{rx:100;} .bloggerbg, .basic .bloggerbrand{ fill: #fc9847; } .bloggerbrand { fill: #fff; fill-rule: evenodd; }
        </style>
    </defs>
    <rect rx="0" ry="0" width="48" height="48" class="bloggerbg"/>
    <path d="M35.946 28.43c-.023 4.162-3.42 7.57-7.603 7.57h-8.735c-4.182 0-7.6-3.408-7.6-7.57v-8.846c0-4.17 3.418-7.584 7.6-7.584h5.316c1.963.232 4.82 1.908 5.873 4.137.29.626.442.638.682 2.492.127.952.193 1.66.62 2.05.603.545 2.84.177 3.28.522l.34.264.202.418.07.335-.047 6.21zM26 19c0-.552-.448-1-1-1h-6c-.552 0-1 .448-1 1v1c0 .552.448 1 1 1h6c.552 0 1-.448 1-1v-1zm4 9c0-.552-.448-1-1-1H19c-.552 0-1 .448-1 1v1c0 .552.448 1 1 1h10c.552 0 1-.448 1-1v-1z" class="bloggerbrand"/>
</svg>
