<?xml version="1.0" encoding="utf-8"?>
<!-- Generated by Glyphs Company app at https://glyphs.co -->
<!-- Copyright Glyphs Company. Please follow included license terms. -->
<!-- Do NOT redistribute -->
<svg class="smart-social scoopit" xmlns="http://www.w3.org/2000/svg" viewBox="0 0 48 48">
    <defs>
        <style>
            .basic .scoopitbg {display:none;} .round .scoopitbg{rx:100;} .scoopitbg, .basic .scoopitbrand{ fill: #6bab36; } .scoopitbrand { fill: #fff; fill-rule: evenodd; }
        </style>
    </defs>
    <rect rx="0" ry="0" width="48" height="48" class="scoopitbg"/>
    <path d="M31 19.298l-.43 8.206c-.64-.005-1.583-.01-2.22.002l-.438-8.178-.002-3.323h3.098L31 19.3zm-.004 12.62H27.8v-2.982h3.196v2.983zm-4.06-9.8h-1.96l.007 6.692c.004.67.328.955 1.034.978.073.003.844.003.917 0l-.005 2.084c-1.09.11-2.44.214-3.523.01-.983-.184-1.32-.705-1.455-1.712-.046-.35-.07-.703-.07-1.057l.004-7.055h-1.834l.01 9.864h-3.066v-5.977l-.007-5.915h4.903l-.005-4.023h3.088l-.004 3.976 1.962.002v2.133zM17 18.844l.006-2.836c.905.007 2.13.01 3.034 0l-.002 2.836H17z" class="scoopitbrand"/>
</svg>
