<?xml version="1.0" encoding="utf-8"?>
<!-- Generated by Glyphs Company app at https://glyphs.co -->
<!-- Copyright Glyphs Company. Please follow included license terms. -->
<!-- Do NOT redistribute -->
<svg class="smart-social youtube" xmlns="http://www.w3.org/2000/svg" viewBox="0 0 48 48">
    <defs>
        <style>
            .basic .youtubebg {display:none;} .round .youtubebg{rx:100;} .youtubebg, .basic .youtubebrand{ fill: #e52117; } .youtubebrand { fill: #fff; fill-rule: evenodd; }
        </style>
    </defs>
    <rect rx="0" ry="0" width="48" height="48" class="youtubebg"/>
    <path d="M39.68 17.975s-.312-2.253-1.272-3.244c-1.216-1.3-2.58-1.307-3.206-1.383-4.478-.33-11.195-.33-11.195-.33h-.014s-6.717 0-11.195.33c-.626.076-1.99.083-3.206 1.385-.96.992-1.272 3.245-1.272 3.245S8 20.62 8 23.265v2.48c0 2.646.32 5.29.32 5.29s.312 2.254 1.272 3.246c1.217 1.304 2.816 1.26 3.528 1.4 2.56.25 10.88.327 10.88.327s6.724-.01 11.202-.34c.626-.077 1.99-.083 3.206-1.385.96-.99 1.272-3.244 1.272-3.244s.32-2.645.32-5.29v-2.48c0-2.646-.32-5.29-.32-5.29zM20.696 28.75v-9.184l8.645 4.608-8.643 4.577z" class="youtubebrand"/>
</svg>
