<?xml version="1.0" encoding="utf-8"?>
<!-- Generated by Glyphs Company app at https://glyphs.co -->
<!-- Copyright Glyphs Company. Please follow included license terms. -->
<!-- Do NOT redistribute -->
<svg class="smart-social android" xmlns="http://www.w3.org/2000/svg" viewBox="0 0 48 48">
    <defs>
        <style>
            .basic .androidbg {display:none;} .round .androidbg{rx:100;} .androidbg, .basic .androidbrand{ fill: #97c124; } .androidbrand { fill: #fff; fill-rule: evenodd; }
        </style>
    </defs>
    <rect rx="0" ry="0" width="48" height="48" class="androidbg"/>
    <path d="M35.295 18.484c-.94 0-1.705.78-1.705 1.74v7.454c0 .96.764 1.74 1.705 1.74.94 0 1.705-.78 1.705-1.74v-7.453c0-.96-.765-1.74-1.705-1.74zm-21.588 0c-.942 0-1.707.78-1.707 1.74v7.454c0 .96.765 1.74 1.707 1.74.94 0 1.703-.78 1.703-1.74v-7.453c0-.96-.763-1.74-1.703-1.74zm2.962 0h-.125v12.774c0 1.014.808 1.84 1.8 1.84h1.298c-.043.153-.067.314-.067.483v3.68c0 .96.763 1.74 1.703 1.74.94 0 1.706-.78 1.706-1.74v-3.68c0-.167-.026-.33-.07-.48h3.166c-.044.152-.067.313-.067.482v3.68c0 .96.763 1.74 1.704 1.74.94 0 1.704-.78 1.704-1.74v-3.68c0-.168-.026-.33-.07-.482h1.3c.993 0 1.8-.826 1.8-1.84V18.484H16.668zM27.906 15c-.47 0-.85-.39-.85-.87 0-.482.38-.87.85-.87.473 0 .852.388.852.87 0 .48-.38.87-.853.87zm-6.816 0c-.472 0-.85-.39-.85-.87 0-.482.38-.87.85-.87s.85.388.85.87c0 .48-.38.87-.85.87zm7.32-3.488l.32-.49.316-.484.71-1.087c.086-.132.05-.312-.08-.4-.13-.09-.307-.053-.394.08l-.76 1.165-.32.49-.323.497c-1.028-.407-2.17-.635-3.38-.635-1.208 0-2.354.228-3.38.636l-.324-.497-.318-.49-.762-1.163c-.088-.134-.262-.17-.393-.08-.13.087-.166.267-.08.4l.708 1.088.317.484.32.492c-2.413 1.148-4.044 3.323-4.044 5.812H32.45c0-2.49-1.63-4.664-4.04-5.812z" class="androidbrand"/>
</svg>