<?xml version="1.0" encoding="utf-8"?>
<!-- Generated by Glyphs Company app at https://glyphs.co -->
<!-- Copyright Glyphs Company. Please follow included license terms. -->
<!-- Do NOT redistribute -->
<svg class="smart-social digg" xmlns="http://www.w3.org/2000/svg" viewBox="0 0 48 48">
    <defs>
        <style>
            .basic .diggbg {display:none;} .round .diggbg{rx:100;} .diggbg, .basic .diggbrand{ fill: #000; } .diggbrand { fill: #fff; fill-rule: evenodd; }
        </style>
    </defs>
    <rect rx="0" ry="0" width="48" height="48" class="diggbg"/>
    <path d="M18.33 16.367v1.767h2.463s.314.008.314-.358l.002-1.768h-2.466s-.315-.008-.315.36zm0 3.668v9.556h2.46s.316.01.316-.356V19.68h-2.46s-.315-.01-.315.356zm-3.615-3.668v3.31h-4.4s-.315-.008-.315.36v9.554h7.177s.314.01.314-.356l.004-13.225H15.03s-.315-.01-.315.36zm0 10.737c0 .367-.314.36-.314.36h-1.68V22.16c0-.366.317-.358.317-.358h1.68v5.302zm7.346-7.068v9.555h4.717v1.277h-4.4s-.315-.008-.315.358v1.768h7.18s.313.008.313-.36V19.685l-7.177-.006s-.315-.01-.315.357zm2.724 2.125c0-.365.314-.357.314-.357h1.68v5.302c0 .367-.315.36-.315.36h-1.68V22.16zm6.04-2.48s-.315-.01-.315.357v9.555h4.713v1.276h-4.4s-.314-.008-.314.358v1.768h7.175s.314.008.314-.36v-12.95l-7.178-.005zm4.4 7.425c0 .367-.314.36-.314.36h-1.682V22.16c0-.366.315-.358.315-.358h1.68v5.302z" class="diggbrand"/>
</svg>
