<?xml version="1.0" encoding="utf-8"?>
<!-- Generated by Glyphs Company app at https://glyphs.co -->
<!-- Copyright Glyphs Company. Please follow included license terms. -->
<!-- Do NOT redistribute -->
<svg class="smart-social vimeo" xmlns="http://www.w3.org/2000/svg" viewBox="0 0 48 48">
    <defs>
        <style>
            .basic .vimeobg {display:none;} .round .vimeobg{rx:100;} .vimeobg, .basic .vimeobrand{ fill: #61a0ad; } .vimeobrand { fill: #fff; fill-rule: evenodd; }
        </style>
    </defs>
    <rect rx="0" ry="0" width="48" height="48" class="vimeobg"/>
    <path d="M12.004 19.71l.975 1.284s2.007-1.59 2.677-.795c.67.793 3.227 10.39 4.08 12.162.746 1.553 2.8 3.606 5.055 2.14 2.252-1.466 9.742-7.885 11.083-15.466 1.34-7.578-9.013-5.99-10.11.612 2.74-1.653 4.204.67 2.8 3.3-1.4 2.628-2.678 4.34-3.348 4.34-.668 0-1.183-1.757-1.95-4.83-.79-3.177-.786-8.9-4.078-8.252-3.106.612-7.187 5.503-7.187 5.503z" class="vimeobrand"/>
</svg>
