<?xml version="1.0" encoding="utf-8"?>
<!-- Generated by Glyphs Company app at https://glyphs.co -->
<!-- Copyright Glyphs Company. Please follow included license terms. -->
<!-- Do NOT redistribute -->
<svg class="smart-social skype" xmlns="http://www.w3.org/2000/svg" viewBox="0 0 48 48">
    <defs>
        <style>
            .basic .skypebg {display:none;} .round .skypebg{rx:100;} .skypebg, .basic .skypebrand{ fill: #00aff0; } .skypebrand { fill: #fff; fill-rule: evenodd; }
        </style>
    </defs>
    <rect rx="0" ry="0" width="48" height="48" class="skypebg"/>
    <path d="M37.58 25.83c.082-.58.13-1.166.13-1.764 0-7.175-6.173-12.992-13.786-12.992-.756 0-1.498.06-2.22.172-1.294-.8-2.834-1.265-4.492-1.265-4.545 0-8.225 3.49-8.225 7.796 0 1.566.486 3.02 1.324 4.243-.11.667-.17 1.35-.17 2.047 0 7.175 6.17 12.992 13.785 12.992.86 0 1.696-.08 2.51-.22 1.263.743 2.752 1.175 4.347 1.175 4.545 0 8.227-3.49 8.227-7.794 0-1.627-.526-3.14-1.43-4.39zm-12.367 7.81c-4.38.217-6.43-.7-8.308-2.37-2.097-1.866-1.255-3.992.454-4.1 1.705-.108 2.73 1.833 3.642 2.373.91.54 4.374 1.765 6.203-.217 1.992-2.157-1.325-3.272-3.756-3.61-3.47-.487-7.855-2.266-7.514-5.772.34-3.504 3.142-5.3 6.09-5.554 3.756-.323 6.202.54 8.137 2.103 2.237 1.807 1.026 3.827-.4 3.99-1.42.16-3.013-2.972-6.143-3.02-3.226-.047-5.406 3.18-1.423 4.1 3.985.916 8.252 1.293 9.79 4.744 1.537 3.452-2.39 7.118-6.774 7.334z" class="skypebrand"/>
</svg>
