<?xml version="1.0" encoding="utf-8"?>
<!-- Generated by Glyphs Company app at https://glyphs.co -->
<!-- Copyright Glyphs Company. Please follow included license terms. -->
<!-- Do NOT redistribute -->
<svg class="smart-social tripadvisor" xmlns="http://www.w3.org/2000/svg" viewBox="0 0 48 48">
    <defs>
        <style>
            .basic .tripadvisorbg {display:none;} .round .tripadvisorbg{rx:100;} .tripadvisorbg, .basic .tripadvisorbrand{ fill: #589542; } .tripadvisorbrand { fill: #fff; fill-rule: evenodd; }
        </style>
    </defs>
    <rect rx="0" ry="0" width="48" height="48" class="tripadvisorbg"/>
    <path d="M16.78 24.095c-.625 0-1.133.555-1.133 1.24 0 .687.508 1.242 1.134 1.242.63 0 1.137-.555 1.137-1.24 0-.687-.508-1.242-1.135-1.242zm14.16 3.782c-1.29 0-2.338-1.145-2.338-2.558 0-1.416 1.048-2.56 2.34-2.56 1.29 0 2.338 1.144 2.338 2.56 0 1.41-1.047 2.556-2.34 2.556zm0-6.25c-1.863 0-3.374 1.652-3.374 3.692 0 2.036 1.51 3.69 3.375 3.69s3.377-1.654 3.377-3.69c0-2.04-1.51-3.695-3.375-3.695zm.003 9.852c-3.092 0-5.598-2.744-5.598-6.127 0-3.38 2.506-6.124 5.598-6.124s5.6 2.742 5.6 6.123c0 3.383-2.508 6.125-5.6 6.125zM17.046 17.746c1.99-.948 4.46-1.46 6.945-1.46 2.49 0 4.746.514 6.738 1.466-3.74.125-6.737 3.478-6.738 7.6-.002-4.197-3.11-7.6-6.944-7.606zm-.01 13.73c-3.093 0-5.6-2.74-5.6-6.124 0-3.38 2.507-6.124 5.6-6.124 3.09 0 5.598 2.742 5.598 6.123 0 3.383-2.507 6.125-5.6 6.125zm20.922-13.624H33.31c-2.37-1.745-5.607-2.835-9.32-2.835s-7.172 1.09-9.542 2.834H10.02c.722.924 1.257 2.174 1.39 3.033-.835 1.254-1.33 2.797-1.33 4.467 0 4.202 3.114 7.608 6.955 7.608 2.18 0 4.124-1.098 5.4-2.814.52.665 1.38 2.002 1.554 2.39 0 0 .997-1.63 1.56-2.383 1.273 1.712 3.216 2.807 5.392 2.807 3.84 0 6.955-3.406 6.955-7.608 0-1.67-.495-3.21-1.33-4.465.133-.86.667-2.11 1.39-3.036zm-21.004 10.04c-1.29 0-2.34-1.145-2.34-2.558 0-1.414 1.05-2.56 2.34-2.56 1.292 0 2.34 1.146 2.34 2.56 0 1.413-1.048 2.558-2.34 2.558zm0-6.25c-1.864 0-3.375 1.653-3.375 3.692 0 2.04 1.51 3.692 3.373 3.692 1.865 0 3.376-1.652 3.376-3.692s-1.51-3.693-3.377-3.693zm13.814 2.433c-.626 0-1.135.556-1.135 1.242 0 .685.51 1.24 1.135 1.24.627 0 1.134-.555 1.134-1.24 0-.687-.507-1.243-1.134-1.243z" class="tripadvisorbrand"/>
</svg>
