<?xml version="1.0" encoding="utf-8"?>
<!-- Generated by Glyphs Company app at https://glyphs.co -->
<!-- Copyright Glyphs Company. Please follow included license terms. -->
<!-- Do NOT redistribute -->
<svg class="smart-social evernote" xmlns="http://www.w3.org/2000/svg" viewBox="0 0 48 48">
    <defs>
        <style>
            .basic .evernotebg {display:none;} .round .evernotebg{rx:100;} .evernotebg, .basic .evernotebrand{ fill: #7ac143; } .evernotebrand { fill: #333; fill-rule: evenodd; }
        </style>
    </defs>
    <rect rx="0" ry="0" width="48" height="48" class="evernotebg"/>
    <path d="M34.943 26.097c.3 9.062-4.84 9.906-4.84 9.906l-2.513-.02s-3.602.358-3.64-3.714c.038-2.985 3.977-2.778 3.977-2.778l.013 1.8s-2.1-.337-2 1.126c-.033.667.497 1.375.847 1.538 1.467 0 1.475.016 2.59.025 0 0 1.098.057 1.59-1.3.018-.225 0-.037 0-2.326 0-2.29-3.32-2.44-3.49-2.44-1.688.132-3.526-2.514-3.526-2.514s-.036 2.177-.036 2.702c-.488 2.59-5.377 1.65-5.39 1.65-4.427-.65-4.515-8.967-4.515-8.967s-.063-1.65 1.275-2.814c.013-.012 4.777-.012 4.777-.012l.927-1.038v-3.45c0-1.276.45-1.426 2.137-1.464 2.376.063 3.152 2.027 3.152 2.027h2.925s2.476 0 3.902 1.2c1.088.863 2.1 5.654 1.838 10.864zm-5.402-4.26c-.9 0-1.31 1.652-1.31 1.652l3.3.45s-1.088-2.103-1.988-2.103zm-14.52-4.915l4.955-4.916v4.015l-1.013.903h-3.94z" class="evernotebrand"/>
</svg>
