<?xml version="1.0" encoding="utf-8"?>
<!-- Generated by Glyphs Company app at https://glyphs.co -->
<!-- Copyright Glyphs Company. Please follow included license terms. -->
<!-- Do NOT redistribute -->
<svg class="smart-socia behancel" xmlns="http://www.w3.org/2000/svg" viewBox="0 0 48 48">
    <defs>
        <style>
            .basic .behancebg {display:none;} .round .behancebg{rx:100;} .behancebg, .basic .behancebrand{ fill: #1e6fed; } .behancebrand { fill: #fff; fill-rule: evenodd; }
        </style>
    </defs>
    <rect rx="0" ry="0" width="48" height="48" class="behancebg"/>
    <path d="M27.995 17.012h5.965v2.002h-5.965v-2.002zm7.988 8.958h-7.776c.083 1.877 1 3.076 2.647 3.076 1.19 0 2.274-.98 2.46-1.648h2.607c-.83 2.544-2.73 3.878-5.17 3.878-3.4 0-5.534-2.335-5.534-5.67 0-3.232 2.263-5.692 5.535-5.692 3.67 0 5.44 2.74 5.234 6.056zm-7.776-1.94h4.816c-.27-1.5-.918-1.885-2.357-1.885-1.876 0-2.418 1.053-2.46 1.886zm-3.737 2.64c0 3.023-2.567 4.317-5.256 4.317H12v-14.98h7.007c2.835 0 4.753 1.01 4.753 3.783 0 1.46-.73 2.482-2.024 3.108 1.816.52 2.733 1.918 2.733 3.772zm-6.13-8.15h-3.347V22h3.596c1.144 0 2-.52 2-1.77 0-1.418-1.085-1.71-2.25-1.71zm.5 5.96h-3.847v4.087h3.783c1.293 0 2.325-.416 2.325-1.96 0-1.52-.863-2.126-2.26-2.126z" class="behancebrand"/>
</svg>
