<?xml version="1.0" encoding="utf-8"?>
<!-- Generated by Glyphs Company app at https://glyphs.co -->
<!-- Copyright Glyphs Company. Please follow included license terms. -->
<!-- Do NOT redistribute -->
<svg class="smart-social spotify" xmlns="http://www.w3.org/2000/svg" viewBox="0 0 48 48">
    <defs>
        <style>
            .basic .spotifybg {display:none;} .round .spotifybg{rx:100;} .spotifybg, .basic .spotifybrand{ fill: #78ba22; } .spotifybrand { fill: #fff; fill-rule: evenodd; }
        </style>
    </defs>
    <rect rx="0" ry="0" width="48" height="48" class="spotifybg"/>
    <path d="M33.533 36.85c-.944-1.507-3.727-4.888-10.085-5.79-6.787-.964-10.632 2.03-11.786 3.127C9.374 31.42 8 27.87 8 24c0-8.836 7.163-16 16-16s16 7.164 16 16c0 5.265-2.543 9.935-6.467 12.85zm-17.068-8.827s2.842-.94 6.88-.442c4.037.5 7.263 2.215 7.263 2.215 1.2.628 2.115-1.117.914-1.745 0 0-3.643-2.096-7.983-2.484-4.343-.387-7.76.538-7.76.538-1.197.343-.51 2.262.684 1.92zm-.188-4.74s3.145-1.12 7.66-.667c4.515.454 8.156 2.283 8.156 2.283 1.354.67 2.33-1.3.975-1.97 0 0-4.115-2.245-8.965-2.568-4.85-.322-8.64.797-8.64.797-1.325.41-.51 2.533.814 2.12zm19.297-5.398s-4.805-2.827-10.628-3.253c-5.823-.426-10.467.957-10.467.957-1.627.507-.794 3.167.83 2.657 0 0 3.87-1.387 9.28-.798 5.41.59 9.67 2.894 9.67 2.894 1.587.846 2.9-1.614 1.313-2.46zM22.98 36.225c3.465.683 4.71 2.304 5.146 3.237-1.316.35-2.7.538-4.126.538-2.78 0-5.395-.71-7.673-1.957.65-.77 2.663-2.6 6.653-1.817z" class="spotifybrand"/>
</svg>
