<?xml version="1.0" encoding="utf-8"?>
<!-- Generated by Glyphs Company app at https://glyphs.co -->
<!-- Copyright Glyphs Company. Please follow included license terms. -->
<!-- Do NOT redistribute -->
<svg class="smart-social linkedin" xmlns="http://www.w3.org/2000/svg" viewBox="0 0 48 48">
    <defs>
        <style>
            .basic .linkedinbg {display:none;} .round .linkedinbg{rx:100;} .linkedinbg, .basic .linkedinbrand{ fill: #007bb6; } .linkedinbrand { fill: #fff; fill-rule: evenodd; }
        </style>
    </defs>
    <rect rx="0" ry="0" width="48" height="48" class="linkedinbg"/>
    <path d="M31.544 36.86v-8.355c0-1.992-.034-4.555-2.774-4.555-2.778 0-3.202 2.172-3.202 4.413v8.497h-5.333V19.68h5.118v2.35h.073c.712-1.352 2.454-2.776 5.052-2.776 5.406 0 6.405 3.557 6.405 8.184v9.422h-5.34zm-17.33-19.527c-1.715 0-3.097-1.387-3.097-3.097s1.382-3.096 3.097-3.096c1.708 0 3.095 1.387 3.095 3.096 0 1.71-1.39 3.097-3.097 3.097zm2.67 19.527H11.54V19.68h5.346v17.18z" class="linkedinbrand"/>
</svg>
