<?xml version="1.0" encoding="utf-8"?>
<!-- Generated by Glyphs Company app at https://glyphs.co -->
<!-- Copyright Glyphs Company. Please follow included license terms. -->
<!-- Do NOT redistribute -->
<svg class="smart-social mail" xmlns="http://www.w3.org/2000/svg" viewBox="0 0 48 48">
    <defs>
        <style>
            .basic .mailbg {display:none;} .round .mailbg{rx:100;} .mailbg, .basic .mailbrand{ fill: #1d90dd; } .mailbrand { fill: #fff; fill-rule: evenodd; }
        </style>
    </defs>
    <rect rx="0" ry="0" width="48" height="48" class="mailbg"/>
    <path d="M24 33v-5.49l.028.022 5.137-3.878 5.482 5.587-4.26-6.51L38 16.984V33H24zM10 16.983l7.612 5.747-4.26 6.51 5.483-5.586 5.137 3.878.028-.02V33H10V16.983zm14 8.82V15h12.323c.504 0 .95.232 1.26.59L24.027 25.823l-.028-.02zM10.42 15.59c.306-.358.753-.59 1.257-.59H24v10.802l-.028.02L10.42 15.59z" class="mailbrand"/>
</svg>
