<?xml version="1.0" encoding="utf-8"?>
<!-- Generated by Glyphs Company app at https://glyphs.co -->
<!-- Copyright Glyphs Company. Please follow included license terms. -->
<!-- Do NOT redistribute -->
<svg class="smart-social google-play" xmlns="http://www.w3.org/2000/svg" viewBox="0 0 48 48">
    <defs>
        <style>
            .basic .google-playbg {display:none;} .round .google-playbg{rx:100;} .google-playbg, .basic .google-playbrand{ fill: #3eabbb; } .google-playbrand { fill: #fff; fill-rule: evenodd; }
        </style>
    </defs>
    <rect rx="0" ry="0" width="48" height="48" class="google-playbg"/>
    <path d="M13.126 10l.273.255.03.033h.016l13.35 13.132 1.414-1.386 2.042-2.006.177-.16-5.63-3.23-11.53-6.59c-.015-.01-.033-.008-.05-.015-.03-.018-.064-.02-.095-.033zm-.964.127c-.097.13-.162.31-.162.542v26.836c0 .144.03.267.08.365l.017-.013h.016l.177-.192 13.958-13.72-.113-.113h-.015l-.05-.03-13.7-13.484-.144-.145-.065-.048h.003zM31.12 20.25l-.08.08h-.016l-.13.145-1.64 1.607-1.75 1.72-.035.016v.015l-.13.112 3.554 3.5.13.145h.015l.08.08 5.387-3.088c.59-.338.624-.79.24-1.1-.027-.022-.064-.042-.096-.062l-.096-.065c-.532-.283-4.84-2.762-5.435-3.104zm-4.325 4.236L13.43 37.618l-.015.016-.385.366 11.77-6.717 5.63-3.232-.178-.157-3.457-3.406z" class="google-playbrand"/>
</svg>
