<?xml version="1.0" encoding="utf-8"?>
<!-- Generated by Glyphs Company app at https://glyphs.co -->
<!-- Copyright Glyphs Company. Please follow included license terms. -->
<!-- Do NOT redistribute -->
<svg class="smart-social pinterest" xmlns="http://www.w3.org/2000/svg" viewBox="0 0 48 48">
    <defs>
        <style>
            .basic .pinterestbg {display:none;} .round .pinterestbg{rx:100;} .pinterestbg, .basic .pinterestbrand{ fill: #b8242a; } .pinterestbrand { fill: #fff; fill-rule: evenodd; }
        </style>
    </defs>
    <rect rx="0" ry="0" width="48" height="48" class="pinterestbg"/>
    <path d="M24 10.003c-7.73 0-13.997 6.267-13.997 13.997 0 5.73 3.447 10.655 8.378 12.82-.037-.977-.005-2.15.246-3.214.27-1.136 1.8-7.627 1.8-7.627s-.446-.896-.446-2.217c0-2.074 1.2-3.623 2.698-3.623 1.274 0 1.89.957 1.89 2.102 0 1.28-.818 3.194-1.237 4.968-.35 1.484.746 2.695 2.21 2.695 2.653 0 4.44-3.406 4.44-7.44 0-3.07-2.067-5.365-5.825-5.365-4.246 0-6.89 3.166-6.89 6.703 0 1.22.358 2.08.92 2.745.26.306.296.43.203.78-.067.258-.222.878-.286 1.124-.092.354-.38.48-.7.35-1.955-.798-2.866-2.94-2.866-5.348 0-3.976 3.354-8.743 10.004-8.743 5.344 0 8.86 3.87 8.86 8.02 0 5.49-3.052 9.593-7.55 9.593-1.513 0-2.934-.817-3.42-1.745 0 0-.813 3.225-.986 3.848-.296 1.08-.877 2.158-1.408 2.998 1.26.372 2.588.574 3.966.574C31.732 37.998 38 31.732 38 24 38 16.27 31.73 10.005 24 10.005z" class="pinterestbrand"/>
</svg>
