<?xml version="1.0" encoding="utf-8"?>
<!-- Generated by Glyphs Company app at https://glyphs.co -->
<!-- Copyright Glyphs Company. Please follow included license terms. -->
<!-- Do NOT redistribute -->
<svg class="smart-social google" xmlns="http://www.w3.org/2000/svg" viewBox="0 0 48 48">
    <defs>
        <style>
            .basic .googlebg {display:none;} .round .googlebg{rx:100;} .googlebg, .basic .googlebrand{ fill: #567ef0; } .googlebrand { fill: #fff; fill-rule: evenodd; }
        </style>
    </defs>
    <rect rx="0" ry="0" width="48" height="48" class="googlebg"/>
    <path d="M27.47 13.137c.707.598 2.182 1.858 2.182 4.252 0 2.33-1.29 3.432-2.58 4.47-.4.41-.862.85-.862 1.545 0 .693.46 1.07.8 1.354l1.106.88c1.352 1.166 2.58 2.238 2.58 4.41 0 2.96-2.796 5.955-8.082 5.955-4.456 0-6.606-2.174-6.606-4.505 0-1.133.553-2.74 2.366-3.842 1.905-1.197 4.487-1.354 5.87-1.45-.43-.566-.922-1.164-.922-2.14 0-.536.153-.85.308-1.23-.34.032-.677.064-.985.064-3.257 0-5.1-2.49-5.1-4.946 0-1.45.645-3.055 1.967-4.22 1.75-1.48 3.84-1.733 5.5-1.733h6.33l-1.967 1.134H27.47zm-2.182 13.986c-.245-.032-.4-.032-.706-.032-.277 0-1.937.065-3.227.506-.676.252-2.643 1.008-2.643 3.245s2.12 3.843 5.41 3.843c2.95 0 4.516-1.448 4.516-3.4 0-1.608-1.014-2.458-3.35-4.16zm.892-5.985c.706-.725.768-1.733.768-2.3 0-2.268-1.32-5.796-3.873-5.796-.798 0-1.658.41-2.15 1.04-.523.66-.677 1.512-.677 2.33 0 2.11 1.2 5.608 3.842 5.608.767 0 1.598-.38 2.09-.882z" class="googlebrand"/>
</svg>
